<svg width="30" height="29" viewBox="0 0 30 29" fill="none" xmlns="http://www.w3.org/2000/svg">
<path d="M22.3259 0C22.9 0.105002 23.4799 0.171319 24.0423 0.32606C26.3035 0.9616 27.9847 2.28242 29.0802 4.25535C29.7363 5.43801 30.0058 6.70356 29.9999 8.03544C29.994 12.1416 29.9999 16.2477 29.9999 20.3539C29.9999 22.15 29.4668 23.7913 28.2952 25.2116C26.614 27.2398 24.3879 28.2677 21.6639 28.2898C19.2738 28.3119 16.8838 28.2953 14.4878 28.2953C12.4961 28.2953 10.5044 28.2953 8.51263 28.2953C5.56604 28.2898 3.20525 27.1845 1.48299 24.9187C0.469549 23.5868 0.00676428 22.0726 0.00676428 20.4368C0.000906242 16.2256 -0.00495179 12.02 0.00676428 7.80885C0.0184803 4.38799 2.32069 1.42029 5.77107 0.381324C6.38617 0.198952 7.04227 0.127108 7.68079 0C12.5605 0 17.4461 0 22.3259 0ZM15.0033 25.7808C15.0033 25.7863 15.0033 25.7863 15.0033 25.7808C17.0712 25.7863 19.1391 25.7863 21.2129 25.7863C21.9861 25.7863 22.7535 25.7532 23.4916 25.51C25.8583 24.7363 27.3228 22.791 27.3345 20.3649C27.3462 16.2311 27.3404 12.0974 27.3404 7.96359C27.3404 6.96883 27.1295 6.01829 26.5788 5.16722C25.4306 3.37665 23.7201 2.51453 21.5175 2.509C17.1649 2.50347 12.8124 2.509 8.45991 2.509C7.59292 2.509 6.74351 2.63058 5.95853 2.99533C3.79106 4.00667 2.68389 5.67012 2.67217 7.94149C2.64874 12.0863 2.66631 16.2311 2.67217 20.3704C2.67217 21.3652 2.88892 22.3102 3.45129 23.1613C4.58775 24.8966 6.25729 25.7698 8.4189 25.7808C10.6098 25.7919 12.8066 25.7808 15.0033 25.7808Z" fill="white"/>
<path d="M22.7369 14.1643C22.6959 18.2152 19.1928 21.4813 14.9516 21.4371C10.7045 21.3929 7.24824 18.0936 7.27753 14.1091C7.30682 10.1024 10.8099 6.81419 15.0219 6.85288C19.3393 6.89156 22.7135 10.1522 22.7369 14.1643ZM14.975 18.9226C17.781 18.9392 20.0657 16.8005 20.0657 14.1533C20.0715 11.5227 17.8162 9.39504 15.0043 9.37846C12.2452 9.36188 9.96638 11.4951 9.94294 14.1257C9.91951 16.7452 12.1807 18.906 14.975 18.9226Z" fill="white"/>
<path d="M23.0293 4.73604C24.0896 4.70816 24.9742 5.52782 25.0093 6.57608C25.0386 7.55187 24.154 8.41613 23.1113 8.43843C22.0276 8.46074 21.1313 7.65223 21.102 6.62627C21.0786 5.61146 21.9397 4.76392 23.0293 4.73604Z" fill="white"/>
</svg>
