<svg width="20" height="20" viewBox="0 0 20 20" fill="none" xmlns="http://www.w3.org/2000/svg">
<path d="M0 3.92101C0.0354484 3.75789 0.0638072 3.60186 0.0992556 3.43874C0.212691 2.99902 0.418291 2.60186 0.737327 2.28271C1.31868 1.70115 1.89295 1.11959 2.48139 0.545121C2.97058 0.0699439 3.53775 -0.164099 4.20418 0.119589C4.43814 0.21888 4.66501 0.367816 4.84225 0.545121C5.72138 1.40328 6.58632 2.26853 7.44417 3.14087C7.82701 3.53094 8.07515 3.98484 7.99007 4.55221C7.92627 4.97775 7.67813 5.30399 7.38745 5.60186C6.89826 6.09122 6.40907 6.58058 5.91989 7.06285C5.66466 7.31817 5.66466 7.382 5.80645 7.70824C6.36654 8.95647 7.2173 9.99193 8.13187 10.9848C9.04644 11.9707 10.0461 12.8572 11.1875 13.5735C11.5775 13.8146 11.9957 14.0132 12.3999 14.2331C12.5842 14.3324 12.726 14.2543 12.8607 14.1196C13.3711 13.609 13.8674 13.0912 14.3921 12.5948C14.5977 12.3962 14.8316 12.2118 15.0868 12.0983C15.6115 11.8572 16.1149 11.9707 16.5686 12.2969C16.682 12.382 16.7884 12.4813 16.8947 12.5806C17.7242 13.4033 18.5537 14.2189 19.369 15.0558C19.5675 15.2614 19.7519 15.4955 19.8653 15.7508C20.1205 16.2969 20.0213 16.8501 19.6242 17.2827C18.9862 17.9848 18.3127 18.6586 17.632 19.3182C17.2563 19.6799 16.7742 19.8643 16.2566 19.9494C16.1928 19.9565 16.129 19.9777 16.0723 19.9919C15.7958 19.9919 15.5264 19.9919 15.2499 19.9919C15.2003 19.9777 15.1577 19.9636 15.1081 19.9565C14.4913 19.8288 13.8532 19.7508 13.2577 19.5593C11.4782 18.999 9.86884 18.0841 8.35874 17.0132C5.61503 15.0699 3.41723 12.6231 1.75115 9.70115C1.12017 8.60186 0.609713 7.44583 0.276498 6.21888C0.155973 5.77916 0.0921659 5.32526 0 4.87136C0 4.55931 0 4.24016 0 3.92101Z" fill="white"/>
</svg>
