<svg width="75" height="79" viewBox="0 0 75 79" fill="none" xmlns="http://www.w3.org/2000/svg">
<path d="M34.5403 32.396C35.9496 30.558 37.3805 28.8049 37.6402 28.7055C38.2705 29.2664 39.4897 29.9495 45.1334 35.0787C45.6363 35.5374 46.1298 35.8333 46.2253 35.7356C46.4484 35.5126 44.1646 32.9289 36.7596 25.0312C31.3605 19.2748 29.0328 17.2486 28.4663 17.8128C27.8794 18.4021 28.9471 19.9123 32.1652 23.0434C34.1008 24.9267 35.6865 26.6013 35.6865 26.7649C35.6865 27.0401 34.2352 28.2737 30.5692 31.1118C29.7366 31.7545 28.8134 32.6885 28.5138 33.1867C27.841 34.3105 28.1354 35.7356 29.1215 36.1349C31.4571 37.0717 33.3414 33.9588 34.5403 32.396ZM29.5212 19.6553C28.4353 18.3977 28.9632 17.9237 30.1272 19.1444C30.5573 19.6042 31.2009 20.3489 30.8957 20.6164C30.6238 20.8423 29.9586 20.0874 29.5212 19.6553ZM40.9882 25.6758C41.5754 24.8935 43.232 22.9315 44.1499 21.8289C44.2526 21.7052 44.0456 21.4627 44.138 21.3453C44.8722 20.4147 45.601 19.8122 45.8007 19.4038C45.8555 19.2919 45.6964 19.1987 45.7798 19.1041C46.5946 18.1825 46.8142 18.0686 46.614 17.8428C46.3937 17.6304 46.0851 17.9572 45.3151 18.7081C45.2571 18.7645 45.1245 18.6197 45.0531 18.6544C44.6292 18.8617 44.0617 19.5268 43.0827 20.3152C42.9995 20.3823 42.7227 20.2427 42.6361 20.3149C41.5315 21.2313 39.5666 22.8778 38.7877 23.4613L37.3728 24.5225L38.4533 25.7825C39.0473 26.4737 39.6205 27.0522 39.7266 27.0678C39.8351 27.0837 40.4011 26.4563 40.9882 25.6758ZM29.9526 63.6289C29.6474 63.4356 29.6637 63.3259 30.0679 62.8811C30.5943 62.2983 33.8197 60.6733 34.4485 60.6733C35.194 60.6733 34.8614 60.208 33.9319 59.9498C32.6182 59.5843 32.5947 59.5919 31.5534 60.6581C31.0343 61.1898 30.0497 61.8646 29.3646 62.1601C27.9455 62.7696 26.432 62.7378 23.3848 62.0295L21.6116 61.6182L22.0013 61.0236C22.2151 60.6962 22.9231 60.0367 23.5752 59.5587C24.5877 58.8159 25.2778 58.508 27.4534 57.8266C27.6364 57.7703 27.0202 57.3239 26.0833 56.8358L24.3791 55.9472L23.3693 56.6798C20.9786 58.4106 18.5297 58.3914 15.0665 56.6145C12.3271 55.2097 12.0049 54.9142 12.6644 54.4121C13.8179 53.5336 15.8209 52.979 17.8558 52.9738C18.9695 52.9701 19.8742 52.9087 19.8666 52.8335C19.8592 52.7576 19.1903 52.1569 18.3798 51.499L16.9074 50.3021L15.8859 50.7624C14.4221 51.4231 11.9896 51.381 10.5439 50.6716C9.29604 50.0591 6.13619 47.5436 6.13619 47.1628C6.13619 46.8355 7.18815 46.4452 8.77444 46.1845C9.99938 45.9826 12.0636 46.1731 13.1158 46.5849C13.4531 46.7162 13.2654 46.3165 12.4586 45.1926L11.326 43.6154L9.5288 43.597C7.30849 43.5768 5.92134 42.9951 4.51655 41.4968C3.13331 40.0203 1.84225 38.131 2.06579 37.9085C2.16822 37.8063 3.09771 37.7247 4.13157 37.7247C5.71913 37.7247 6.21784 37.8319 7.32719 38.4149C8.04947 38.7943 8.67862 39.0666 8.72602 39.0208C8.772 38.9734 8.52664 38.2129 8.1788 37.3297L7.54734 35.7242L6.16702 35.4325C3.26124 34.8216 1.81273 33.3502 0.635465 29.813C0.285174 28.7634 0 27.8085 0 27.6898C0 27.3277 1.93675 27.7614 3.21912 28.4121C3.88767 28.7507 4.88965 29.4933 5.44575 30.0623L6.4569 31.0977L6.29845 29.748C6.2115 29.0048 6.13881 27.985 6.1375 27.4813C6.13657 26.6362 6.04535 26.5188 4.97025 25.9677C3.16801 25.0463 2.05159 23.7384 1.60707 22.0252C1.2184 20.5272 1.07785 16.4941 1.41384 16.4941C1.51754 16.4941 2.1835 16.8852 2.89314 17.3634C4.21738 18.2558 5.33962 19.581 5.88685 20.9019C6.05699 21.3119 6.27417 21.6484 6.37136 21.6484C6.46823 21.6484 6.68676 20.8711 6.85716 19.921L7.16498 18.1955L6.18103 17.1267C4.61106 15.424 4.29929 14.6635 4.3169 12.5669C4.32981 10.8973 4.96652 7.83224 5.40236 7.33586C5.84205 6.83473 8.55849 10.798 8.60718 12.0111C8.61749 12.2486 8.71069 12.6642 8.81655 12.9354C8.98555 13.3672 9.0712 13.3032 9.53537 12.3922C10.2038 11.0829 10.1961 10.8222 9.46375 9.74179C9.13519 9.25755 8.73489 8.27666 8.57506 7.56487C8.32972 6.4682 8.3499 6.04605 8.70809 4.81637C9.09008 3.49973 10.8876 0.0494461 11.1907 0.0494461C11.2597 0.0494461 11.6686 0.794609 12.1007 1.7062C12.7577 3.09342 12.8856 3.65067 12.8856 5.13473C12.8856 6.76971 12.9165 6.8745 13.2766 6.48472C13.4913 6.25198 13.8702 5.51049 14.1169 4.83553C14.7279 3.16615 16.7167 1.2399 18.5281 0.562164C19.9995 0.0112228 22.0898 -0.130676 22.0898 0.319328C22.0898 0.893425 20.2833 3.99083 19.4487 4.85115C18.4296 5.90069 17.2921 6.43372 15.615 6.64568C14.7339 6.75838 14.316 6.95132 14.0361 7.37322L13.655 7.94595L14.8658 7.7529C15.5318 7.64677 16.5827 7.57648 17.2026 7.59678C18.3251 7.63524 21.1078 8.5224 21.1078 8.84308C21.1078 9.0619 18.3251 10.9128 17.0466 11.5445C15.2516 12.4303 14.5154 12.4316 11.574 11.5599C11.2905 11.4754 9.83927 13.7749 9.82265 14.3351C9.82079 14.4309 10.5078 14.1828 11.3515 13.7841C12.6571 13.1667 13.1782 13.0582 14.8492 13.0619C17.4685 13.0656 17.7165 13.242 16.7986 14.4488C14.5322 17.4286 12.6631 18.5537 10.0015 18.5382L8.3452 18.5281L8.11373 19.4126C7.98701 19.8995 7.80408 20.7391 7.70846 21.2801L7.53184 22.262L8.58406 21.3133C9.16199 20.7918 10.1231 20.1488 10.719 19.8856C11.8095 19.4033 14.2102 18.9088 14.5282 19.1019C14.8263 19.2833 12.7629 23.4558 11.9499 24.3161C11.045 25.2736 9.01848 26.305 8.03814 26.3089C7.36589 26.3126 7.36328 26.3182 7.39279 27.9681C7.40831 28.8787 7.4923 29.9562 7.57811 30.3601L7.73536 31.0964L8.39491 29.9715C8.7581 29.3527 9.51588 28.4298 10.081 27.9197C11.1292 26.9723 13.1768 25.9066 13.4405 26.171C13.7206 26.4499 13.0313 30.4613 12.4881 31.7241C12.111 32.5999 11.5675 33.2888 10.7356 33.9472C10.0707 34.4725 9.45455 34.9036 9.36636 34.9046C9.27681 34.9083 9.05586 35.0028 8.87554 35.1168C8.61329 35.283 8.70809 35.7101 9.34583 37.2426L10.145 39.1612L10.5502 37.681C10.7728 36.8668 11.2467 35.7035 11.6049 35.0939C12.2326 34.0211 13.7883 32.4476 14.2189 32.4476C14.5322 32.4476 14.9719 35.2985 14.9719 37.3385C14.9719 39.43 14.6114 40.3348 13.2437 41.6833C12.7129 42.2052 12.2784 42.7342 12.2761 42.8582C12.2705 43.1089 14.5322 46.1769 14.7266 46.1845C14.7942 46.1882 14.8579 45.2784 14.8682 44.1645C14.885 42.4098 14.9885 41.9442 15.6455 40.6545C16.4753 39.0271 17.0748 38.3778 17.4211 38.728C17.8187 39.1322 19.2222 42.8555 19.4013 43.9834C19.6238 45.3908 19.0982 47.4795 18.2356 48.6107L17.5925 49.4534L18.4296 50.1601C18.8901 50.5475 19.6977 51.2173 20.226 51.6481L21.1845 52.4291L21.0197 51.7031C20.4111 49.0209 20.5862 47.064 21.6424 44.7465L22.1459 43.6408L22.8386 44.4871C24.2962 46.264 25.508 48.6057 25.7507 50.1104C25.9809 51.5397 25.9055 52.0916 25.1691 54.4146C24.9968 54.9565 25.2317 55.147 27.4895 56.2937C28.8574 56.9878 29.3672 56.8637 28.6052 56.0227C27.7718 55.1008 27.244 53.1438 27.244 50.9746C27.244 49.6427 27.3399 48.8922 27.5097 48.8922C27.9597 48.8922 31.3295 51.808 31.9917 52.7691C32.9516 54.1652 33.178 55.0026 33.0937 56.8472L33.0158 58.5448L35.1771 59.1687L37.3401 59.7909L39.103 59.3387C41.965 58.6025 41.8847 58.6791 41.767 56.8408C41.5929 54.0986 42.5993 52.3449 45.7284 49.9363C47.4466 48.6147 47.6053 48.7171 47.6114 51.1533C47.6151 52.9687 47.1308 54.6829 46.2437 55.988C45.9256 56.4571 45.7055 56.8816 45.7553 56.9315C45.845 57.02 49.8243 55.0871 49.8243 54.9552C49.8243 54.9184 49.5916 54.2289 49.3093 53.4235C48.3987 50.8377 49.0088 48.5112 51.4759 45.158L52.61 43.6192L53.2899 45.0659C54.3343 47.2854 54.4517 49.7256 53.6173 51.8986C53.3297 52.6504 53.8358 52.3678 55.5473 50.8236L57.2131 49.3188L56.721 48.7951C55.1946 47.1701 54.9939 44.4461 56.1765 41.3923C57.1426 38.8915 57.4994 38.3738 57.9789 38.7715C59.1382 39.7352 60.318 43.4555 60.0318 45.2476C59.9486 45.7666 59.9473 46.1924 60.0281 46.1924C60.2375 46.1924 60.9852 45.2744 61.8458 43.9642L62.5834 42.8406L61.5135 41.7244C60.3717 40.5331 59.6421 38.8341 59.6407 37.3733C59.6407 36.0832 60.4065 32.4476 60.6787 32.4476C60.8078 32.4476 61.4482 33.0024 62.1025 33.6825C63.2941 34.9188 64.3041 36.9945 64.3041 38.2089C64.3041 39.3368 64.7194 39.045 65.3703 37.4638C65.7292 36.5893 66.0221 35.7125 66.0221 35.5157C66.0221 35.3175 65.6016 34.9417 65.0852 34.6784C63.0178 33.6238 61.8726 31.6283 61.4813 28.3979C61.3997 27.7228 61.2809 26.9214 61.218 26.6184C61.0684 25.8884 61.4776 25.9076 62.9797 26.6989C64.4893 27.4942 65.6334 28.5743 66.4695 29.9894L67.1201 31.0911L67.2929 30.1121C67.3887 29.5742 67.4733 28.4987 67.4806 27.7228C67.4948 26.3795 67.4653 26.3116 66.8863 26.3116C65.8711 26.3116 64.2362 25.5535 63.233 24.6179C62.6705 24.0926 61.8458 22.8394 61.2027 21.5304C60.2463 19.585 60.1697 19.3088 60.5431 19.1785C61.6706 18.7822 64.5556 19.8699 66.2714 21.3388C67.0601 22.0152 67.28 22.115 67.1788 21.7543C67.1072 21.4936 66.9769 20.8377 66.89 20.2985C66.5948 18.4509 66.669 18.5125 64.7259 18.5241C62.191 18.5394 60.8383 17.7827 58.49 15.0356C57.1634 13.481 57.1494 13.4502 57.7155 13.2392C58.4813 12.9554 61.2731 12.9835 62.3034 13.2853C62.7548 13.4183 63.5139 13.7572 63.9908 14.0384C64.4677 14.3193 64.9061 14.501 64.9661 14.4408C65.0261 14.381 64.7297 13.6664 64.3068 12.8548L63.5384 11.3768L62.6331 11.7617C61.0737 12.4224 59.1881 12.3036 57.5083 11.437C55.9692 10.6432 53.7769 9.12436 53.7603 8.84067C53.7556 8.74982 54.3854 8.43543 55.1611 8.14258C56.3334 7.70177 56.9562 7.62758 58.8315 7.7066C60.8397 7.79114 61.0571 7.76031 60.7949 7.42292C60.3283 6.82339 60.056 6.68406 59.3442 6.68047C58.0695 6.67303 56.0061 5.70486 55.1611 4.71783C54.4623 3.89973 52.5229 0.530258 52.5229 0.131378C52.5229 -0.240715 55.6996 0.241386 56.8181 0.782005C58.4415 1.56725 60.1787 3.37841 60.7364 4.86745C61.6182 7.22731 61.9635 7.2352 62.0032 4.8943C62.0336 3.15718 62.521 1.57461 63.3685 0.462631C63.679 0.0544815 63.7926 0.167191 64.7234 1.81265C66.7162 5.33278 66.8723 7.63763 65.2692 9.8505L64.5443 10.8527L65.1965 12.1386L65.8483 13.4259L66.2575 11.9342C66.7343 10.1931 67.3748 9.08484 68.5658 7.93336L69.4237 7.10468L69.6999 8.17844C69.852 8.76907 70.0759 9.58485 70.196 9.98987C71.0524 12.8764 70.5807 15.1491 68.7448 16.9863L67.5691 18.162L67.9817 20.0885L68.3946 22.0165L68.8907 20.8992C69.164 20.2844 69.7407 19.3804 70.1717 18.8896C70.9604 17.9922 73.0186 16.4941 73.4633 16.4941C73.7906 16.4941 73.5001 21.2521 73.0975 22.5074C72.7115 23.7076 70.8427 25.6431 69.6528 26.0739C68.8688 26.3566 68.763 26.5035 68.6274 27.4889C68.5454 28.0935 68.4765 29.092 68.4765 29.7082V30.8291L69.3968 29.937C70.5077 28.8592 72.4303 27.8636 73.8301 27.6395C74.3965 27.5489 74.8578 27.526 74.8578 27.5887C74.8578 27.9555 73.7393 31.0174 73.2573 31.9669C72.2462 33.9627 70.1575 35.3788 67.7732 35.6856C67.3029 35.7456 67.083 36.0629 66.619 37.3474C66.3046 38.2195 66.0718 38.9608 66.1053 38.9926C66.137 39.0244 66.7659 38.7523 67.5035 38.3881C68.6081 37.8408 69.1746 37.7247 70.725 37.7247C71.7604 37.7247 72.682 37.7985 72.7744 37.8909C72.975 38.0902 71.8665 39.7365 70.4656 41.3231C68.9954 42.9875 67.5701 43.6087 65.2858 43.5792L63.445 43.5575L62.4158 45.0519C61.8508 45.874 61.4189 46.5784 61.4558 46.6155C61.4943 46.6536 61.8816 46.5605 62.3163 46.4096C63.8502 45.874 68.7219 46.4593 68.7219 47.1779C68.7219 47.4565 65.2945 50.104 64.2044 50.6678C62.8635 51.3605 60.3949 51.4043 58.9645 50.7597L57.9352 50.2957L56.7953 51.2508C56.1689 51.7746 55.4476 52.3704 55.1959 52.5737C54.778 52.9073 54.9312 52.9431 56.8819 52.956C58.6896 52.9687 59.2686 53.0801 60.5587 53.6628C62.8708 54.7084 62.8904 54.8285 60.9202 55.9792C58.5529 57.3611 56.8793 57.9734 55.4616 57.9734C54.0467 57.9734 51.9705 57.2484 51.136 56.4648L50.5527 55.9179L48.8387 56.7476C47.0682 57.604 46.7182 57.9721 47.6754 57.9734C49.0076 57.9734 53.0137 60.5761 53.0137 61.4403C53.0137 61.6509 52.0281 61.9374 49.7106 62.4001C47.0387 62.9333 44.9016 62.3324 43.2102 60.5708C42.745 60.0879 42.1812 59.6916 41.9576 59.6916C41.4025 59.6916 40.0054 60.1924 40.0054 60.3918C40.0054 60.4816 40.7189 60.8101 41.5893 61.1219C42.4597 61.4337 43.6268 62.0193 44.1842 62.423C45.0113 63.0228 45.1431 63.2209 44.9029 63.51C44.5205 63.97 44.0718 63.9587 43.6729 63.478C43.1847 62.89 41.6164 62.1601 39.429 61.5054L37.4551 60.9148L35.644 61.4122C33.8032 61.9173 32.3061 62.578 31.1327 63.4051C30.381 63.9346 30.4218 63.9254 29.9526 63.6289ZM27.5761 59.8296C29.797 59.2198 30.3926 58.9552 29.5502 58.9552C28.8137 58.9552 25.7597 59.85 25.4543 60.1557C25.0938 60.5146 25.0772 60.5185 27.5761 59.8296ZM49.579 60.3078C49.579 59.951 45.0678 58.7214 44.7862 59.001C44.7226 59.0653 45.6365 59.4002 46.8175 59.7454C49.0653 60.4011 49.579 60.5059 49.579 60.3078ZM29.8506 54.495C29.2368 53.1005 28.7305 52.1789 28.7255 52.4471C28.7152 52.9702 30.6928 57.305 30.8639 57.1336C30.9203 57.0774 30.4642 55.8898 29.8506 54.495ZM44.9885 55.3171C46.0918 52.9038 46.4394 51.3902 45.3925 53.5555C44.1077 56.2132 43.6959 57.2373 43.9084 57.2373C44.0197 57.2373 44.5053 56.373 44.9885 55.3171ZM20.9852 54.7713C19.1625 54.4874 15.7082 54.4937 15.7082 54.7827C15.7082 54.9349 16.9342 55.0154 18.9603 54.9946C21.4875 54.9691 21.939 54.9195 20.9852 54.7713ZM58.5374 54.7827C58.7191 54.4872 55.3891 54.4782 53.7515 54.77C52.881 54.9242 53.2541 54.9729 55.5153 54.9971C57.199 55.0154 58.4479 54.9256 58.5374 54.7827ZM22.8337 50.4631C22.5372 47.2711 22.3352 46.5744 22.3352 48.7426C22.3352 50.1959 22.8208 53.6411 23.0012 53.4608C23.0575 53.4047 22.9819 52.0559 22.8337 50.4631ZM52.248 51.459C52.5292 49.5721 52.6174 47.4887 52.4079 47.698C52.2045 47.9023 51.6179 53.31 51.7993 53.31C51.8951 53.31 52.0971 52.4765 52.248 51.459ZM14.6884 48.6389C13.8534 48.1517 9.81766 47.317 9.81766 47.6314C9.81766 47.8118 13.8328 48.8166 14.7266 48.8587C15.0231 48.8728 15.0168 48.8306 14.6884 48.6389ZM62.8327 48.2833C63.9795 48.0484 65.0288 47.7454 65.1645 47.6098C65.3279 47.4449 65.2461 47.4068 64.919 47.4934C64.6494 47.5651 63.9026 47.6944 63.2609 47.7812C62.6202 47.8681 61.5159 48.1559 60.8065 48.4179C59.3901 48.9445 59.7184 48.9229 62.8327 48.2833ZM16.7322 44.0444C16.7846 43.0654 16.7577 42.2651 16.6707 42.2651C16.4494 42.2651 16.1978 44.5586 16.2272 46.3151C16.2515 47.7212 16.2618 47.7428 16.4434 46.8059C16.5492 46.265 16.6785 45.0226 16.7322 44.0444ZM58.5438 45.0264C58.4479 43.5741 58.2728 42.2854 58.1541 42.1614C58.0313 42.0326 57.9968 43.0269 58.0747 44.4931C58.2151 47.1613 58.2933 47.6648 58.559 47.6648C58.6462 47.6648 58.6396 46.4773 58.5438 45.0264ZM9.81766 41.3946C9.81766 41.1734 5.1543 38.9913 5.00338 39.1421C4.92702 39.2201 5.89556 39.7881 7.15608 40.405C9.41245 41.5084 9.81766 41.6593 9.81766 41.3946ZM67.863 40.2736C69.9901 39.2585 70.5001 38.8277 68.9468 39.3583C68.0662 39.6585 65.5326 41.0138 65.5326 41.1837C65.5326 41.368 65.7445 41.2848 67.863 40.2736ZM12.2771 38.323C12.6953 36.964 12.9984 35.7316 12.9494 35.5834C12.8999 35.4351 12.5673 36.2428 12.2094 37.3779C11.408 39.9285 11.1957 40.7926 11.376 40.7926C11.4513 40.7926 11.8579 39.6804 12.2771 38.323ZM63.307 39.674C62.9207 38.1668 61.8047 35.1115 61.6847 35.2318C61.6246 35.2905 61.9799 36.574 62.472 38.0836C63.3415 40.745 63.8118 41.6424 63.307 39.674ZM5.39103 32.0601C4.65343 31.307 3.71867 30.462 3.31367 30.1823C2.90837 29.9022 3.40294 30.517 4.41143 31.5503C5.41996 32.5831 6.35607 33.4294 6.48881 33.4294C6.62314 33.4294 6.12833 32.8132 5.39103 32.0601ZM70.5688 31.4289C71.7812 30.1911 72.1991 29.6507 71.6685 30.0109C70.1141 31.0681 67.9548 33.4294 68.5441 33.4294C68.5813 33.4294 69.4927 32.5281 70.5688 31.4289ZM10.1003 30.668C11.8247 28.0961 11.3621 28.2264 9.53622 30.8267C8.43845 32.39 8.15959 32.9386 8.46135 32.9386C8.52536 32.9386 9.26313 31.9158 10.1003 30.668ZM65.6921 31.421C65.2129 30.7027 64.473 29.7284 64.0472 29.257C63.3082 28.4363 63.2928 28.431 63.7007 29.1343C64.4958 30.5018 66.316 32.9715 66.44 32.8488C66.5063 32.7811 66.1703 32.1381 65.6921 31.421ZM4.76189 21.8989C4.11367 20.6691 3.41691 19.53 3.21513 19.3665C3.0119 19.2039 3.29817 19.8994 3.8516 20.9119C5.38573 23.7205 5.74994 24.324 5.84974 24.2255C5.89944 24.1744 5.40995 23.1272 4.76189 21.8989ZM11.6954 21.096C11.7992 20.9274 11.5575 20.9987 11.1575 21.2547C9.99023 22.0036 7.61004 23.9619 7.61004 24.1744C7.60911 24.4093 11.4258 21.5331 11.6954 21.096ZM66.499 23.3637C65.3677 22.3872 63.0692 20.8376 62.9428 20.9656C62.8865 21.0206 63.8031 21.7993 64.9778 22.6924C67.1051 24.3098 68.1083 24.7532 66.499 23.3637ZM70.5434 21.6726C71.1663 20.5384 71.6353 19.5694 71.5856 19.52C71.3884 19.3228 68.9687 23.485 68.9687 24.0209C68.9687 24.3837 69.4376 23.6844 70.5434 21.6726ZM13.6845 14.5763C13.209 14.4857 9.57231 15.9635 9.57231 16.2484C9.57231 16.3585 10.5858 16.0441 11.826 15.5506C13.066 15.0571 13.9018 14.6185 13.6845 14.5763ZM65.4198 16.264C65.2334 15.9636 61.3842 14.4805 61.0646 14.5882C60.837 14.6635 64.9111 16.4594 65.3625 16.4825C65.4723 16.489 65.4978 16.3904 65.4198 16.264ZM67.7247 13.6715C68.0112 12.4559 68.309 11.2553 68.3872 11.0025C68.4752 10.721 68.4318 10.6023 68.2782 10.6968C68.0252 10.8527 67.0053 14.8197 67.0053 15.6438C67.0053 16.4391 67.1983 15.9112 67.7247 13.6715ZM7.46674 13.9781C7.13688 12.1219 6.64494 10.5022 6.4659 10.6826C6.40849 10.739 6.59622 11.7664 6.88381 12.9646C7.50624 15.5573 7.56397 15.7579 7.68796 15.7579C7.74035 15.7579 7.64059 14.9563 7.46674 13.9781ZM17.549 9.09869C17.7153 8.92885 17.2218 8.90438 16.0087 9.02207C13.0734 9.30593 12.3475 9.62801 14.972 9.48106C16.254 9.40814 17.4137 9.23702 17.549 9.09869ZM61.1171 9.36965C59.7709 9.05287 56.7974 8.80853 57.0139 9.03108C57.258 9.28516 59.1397 9.5527 60.7465 9.56271C61.9108 9.57014 61.93 9.55898 61.1171 9.36965ZM11.4998 5.20398C11.5007 4.09662 11.436 3.75806 11.2905 4.09934C11.1738 4.3689 11.0859 5.58339 11.0921 6.79916C11.1038 8.68581 11.1342 8.84721 11.3031 7.9038C11.4105 7.29498 11.4998 6.08079 11.4998 5.20398ZM63.6008 4.17095C63.4042 3.4884 63.3644 3.67215 63.3452 5.35741C63.3135 8.25242 63.6687 9.64719 63.7622 6.99349C63.8018 5.88512 63.7289 4.61566 63.6008 4.17095ZM17.9823 2.89515C18.7596 2.36843 19.345 1.88634 19.2812 1.82263C19.0458 1.58746 15.2416 4.12085 15.225 4.52514C15.2157 4.7178 15.7593 4.39841 17.9823 2.89515ZM59.6421 4.58887C59.6421 4.40345 56.6773 2.25974 55.8376 1.8382C54.6794 1.25621 55.4876 1.97854 57.6606 3.46519C59.5167 4.73441 59.6421 4.8063 59.6421 4.58887ZM38.1302 10.6453V10.1187H39.7101C39.7422 10.1913 39.773 10.2642 39.8017 10.3307L39.7101 10.3672V10.6453H38.1302ZM37.4603 44.6279C37.6323 44.4457 37.8049 44.2682 37.9782 44.0952L37.6059 43.7229L37.6022 43.7266L37.5588 43.7703L37.5148 43.8141L37.4703 43.8593L37.46 43.8696L37.4484 43.8577L37.4042 43.8132L37.3605 43.7695L37.3162 43.7252L37.2725 43.6816L37.2457 43.6547L36.8752 44.0296C37.0711 44.2235 37.2662 44.4225 37.4603 44.6279ZM39.1366 43.0211C39.5463 42.6702 39.961 42.3463 40.3826 42.0511L40.0795 41.62L40.0493 41.6411L40.001 41.6751L39.956 41.7077L39.9096 41.7404L39.8612 41.7757L39.8154 41.8091L39.7695 41.8426L39.7225 41.8776L39.6767 41.9118L39.6306 41.9462L39.5829 41.9827L39.5376 42.0174L39.4921 42.0522L39.4455 42.0885L39.3994 42.1243L39.3533 42.1606L39.308 42.1964L39.263 42.2323L39.2155 42.2702L39.17 42.3073L39.125 42.3437L39.0795 42.3813L39.0336 42.4187L38.9873 42.4572L38.9428 42.4948L38.8978 42.5324L38.8517 42.5711L38.8063 42.6102L38.7932 42.6214L39.1366 43.0211ZM41.7268 41.2232C42.198 40.9728 42.6785 40.759 43.1698 40.5836L42.9934 40.0873L42.9925 40.0876L42.9414 40.1057L42.8887 40.1249L42.8374 40.1441L42.7871 40.1631L42.7363 40.1823L42.6852 40.2024L42.6335 40.2226L42.583 40.2429L42.5322 40.2634L42.4814 40.2845L42.4308 40.3056L42.38 40.3271L42.3304 40.3485L42.2802 40.3701L42.2291 40.3927L42.1786 40.4154L42.1293 40.4378L42.0793 40.4606L42.0306 40.4833L41.9802 40.5067L41.9291 40.5309L41.8796 40.5549L41.8312 40.5786L41.7811 40.6031L41.7314 40.6281L41.6821 40.6529L41.6329 40.6782L41.5842 40.7032L41.5347 40.729L41.4858 40.755L41.4783 40.7597L41.7268 41.2232ZM44.6939 40.1739C45.2043 40.0804 45.7272 40.0283 46.2646 40.0185L46.2543 39.4914H46.2412L46.1843 39.4932L46.128 39.4942L46.0703 39.496L46.0139 39.4988L45.9578 39.5007L45.9015 39.5034L45.8454 39.5062L45.7883 39.51L45.7324 39.5137L45.6779 39.5174L45.6208 39.522L45.565 39.5267L45.5094 39.5313L45.4528 39.5369L45.3975 39.5425L45.3422 39.549L45.2869 39.5545L45.2319 39.561L45.1772 39.5675L45.1218 39.5741L45.0668 39.5815L45.0122 39.5889L44.9561 39.5963L44.9014 39.6047L44.8485 39.6131L44.7929 39.6214L44.7381 39.6307L44.6842 39.64L44.6302 39.6495L44.5983 39.655L44.6939 40.1739ZM47.8403 40.1101C48.3432 40.1765 48.8591 40.2787 49.3886 40.4182L49.523 39.9085L49.5165 39.9066L49.4535 39.8903L49.3919 39.8745L49.3303 39.859L49.2689 39.8439L49.2065 39.8287L49.144 39.8139L49.0827 39.7997L49.0216 39.786L48.9595 39.7721L48.8987 39.7592L48.8379 39.746L48.7762 39.7333L48.7146 39.7207L48.654 39.7091L48.5937 39.6973L48.5324 39.686L48.4721 39.6749L48.4121 39.6643L48.352 39.6541L48.2909 39.6435L48.2299 39.6338L48.1701 39.6245L48.1108 39.6152L48.0513 39.6068L47.9915 39.5985L47.9312 39.5901L47.9067 39.5864L47.8403 40.1101ZM52.6804 36.6194C52.4932 36.5062 52.3097 36.3879 52.1298 36.2655L51.8341 36.7012L51.8686 36.7246L51.9065 36.7502L51.9452 36.7763L51.9689 36.7918L51.7582 37.1515L52.2128 37.4177L52.6804 36.6194ZM50.8875 35.2912C50.4941 34.9386 50.1259 34.5613 49.7844 34.1618L49.3842 34.5041L49.386 34.506L49.4152 34.54L49.4442 34.5737L49.4748 34.6084L49.504 34.6416L49.5324 34.674L49.563 34.7085L49.594 34.7429L49.623 34.7748L49.6533 34.8083L49.6841 34.8417L49.7139 34.8741L49.7449 34.9073L49.7749 34.9394L49.8068 34.9734L49.8373 35.0053L49.8679 35.0374L49.8997 35.0709L49.9309 35.1024L49.9616 35.134L49.9935 35.1664L50.0253 35.1985L50.0575 35.2306L50.0888 35.2618L50.1209 35.2936L50.1541 35.3259L50.1852 35.356L50.2168 35.3868L50.2505 35.4189L50.2826 35.4495L50.3155 35.4808L50.3489 35.5119L50.3811 35.5419L50.4153 35.5738L50.448 35.6035L50.4798 35.6328L50.5143 35.6641L50.5361 35.6836L50.8875 35.2912ZM48.8394 32.8971C48.5529 32.456 48.2948 31.996 48.0673 31.5202L47.5923 31.748L47.6042 31.773L47.6238 31.8143L47.6436 31.8544L47.6633 31.8948L47.6834 31.9346L47.7036 31.9752L47.7239 32.0155L47.7442 32.0553L47.765 32.0952L47.7848 32.1334L47.8061 32.1748L47.8274 32.2146L47.8475 32.2525L47.869 32.293L47.8906 32.3327L47.9122 32.3723L47.9336 32.4112L47.9554 32.4507L47.9778 32.4902L47.9993 32.5287L48.0217 32.5681L48.0438 32.6064L48.0665 32.6456L48.0886 32.6832L48.1115 32.7227L48.1347 32.7615L48.1566 32.7983L48.1806 32.8384L48.2043 32.8768L48.2271 32.9147L48.2506 32.9524L48.2737 32.9898L48.2974 33.028L48.3225 33.0675L48.3466 33.1053L48.3699 33.1415L48.3939 33.1786L48.3985 33.186L48.8394 32.8971ZM47.4801 30.0546C47.3171 29.5566 47.1855 29.046 47.0868 28.5254L46.5692 28.625L46.573 28.6453L46.5813 28.6898L46.5897 28.7345L46.599 28.7793L46.6082 28.8238L46.6175 28.8686L46.627 28.9125L46.6368 28.9586L46.6468 29.0031L46.6566 29.0473L46.6668 29.0918L46.6768 29.1355L46.687 29.1798L46.6976 29.224L46.7087 29.2696L46.7194 29.3133L46.7299 29.3562L46.7411 29.3996L46.7526 29.4453L46.7642 29.4892L46.7756 29.5331L46.7876 29.5779L46.7998 29.6217L46.8113 29.6637L46.8235 29.7072L46.8361 29.752L46.8488 29.7955L46.8614 29.8391L46.8743 29.8826L46.8872 29.9258L46.9003 29.9693L46.9135 30.0122L46.9273 30.0567L46.9409 30.0999L46.9541 30.1412L46.968 30.1843L46.9794 30.2191L47.4801 30.0546ZM46.8918 26.9587C46.8597 26.4249 46.8629 25.8983 46.8993 25.3801L46.3737 25.344L46.3709 25.3809L46.3672 25.4354L46.3635 25.4902L46.3607 25.5449L46.3579 25.5981L46.3551 25.6529L46.3533 25.7079L46.3505 25.7614L46.3486 25.8167L46.3468 25.8715L46.3449 25.9268L46.344 25.9804L46.343 26.0355L46.3425 26.0908L46.342 26.1448L46.3417 26.2V26.2554L46.342 26.3107L46.3425 26.3662L46.3433 26.4205L46.3441 26.476L46.3459 26.5316L46.3468 26.5858L46.3487 26.6414L46.3506 26.6972L46.3533 26.753L46.3552 26.8088L46.358 26.8647L46.3608 26.9192L46.3636 26.9738L46.3645 26.9924L46.8901 26.9587H46.8918ZM47.1159 23.8162C47.2241 23.2972 47.3671 22.7901 47.5433 22.2964L47.0464 22.1213L47.0348 22.1542L47.0177 22.2031L47.0001 22.2537L46.9832 22.3037L46.9669 22.3519L46.95 22.4028L46.9335 22.453L46.9171 22.5038L46.9016 22.5533L46.8858 22.6028L46.87 22.6555L46.855 22.705L46.8399 22.7551L46.8253 22.8062L46.8102 22.8575L46.7963 22.9078L46.7821 22.9578L46.7679 23.0094L46.7539 23.0613L46.7404 23.1127L46.7273 23.1635L46.7142 23.2151L46.7012 23.2666L46.6891 23.3165L46.6761 23.3686L46.6638 23.4218L46.652 23.4729L46.6404 23.524L46.6288 23.5764L46.6177 23.6272L46.6061 23.6801L46.5996 23.7101L47.1159 23.8162ZM48.1742 20.8497C48.4167 20.3833 48.6911 19.9331 48.9952 19.5012L48.5637 19.1987L48.5468 19.2226L48.5173 19.265L48.4867 19.3088L48.4563 19.3535L48.4273 19.3965L48.3986 19.4391L48.3686 19.4841L48.3399 19.5278L48.3116 19.5707L48.2825 19.6155L48.2542 19.6595L48.2261 19.7035L48.1977 19.7488L48.1697 19.7935L48.1426 19.8378L48.1153 19.8823L48.0879 19.9273L48.0613 19.9718L48.0333 20.0181L48.007 20.0637L47.9812 20.1074L47.9551 20.1527L47.9288 20.1982L47.9024 20.2446L47.8766 20.2912L47.8513 20.3367L47.8266 20.3818L47.8011 20.4284L47.7766 20.4745L47.7521 20.5203L47.7271 20.5675L47.7063 20.6072L48.1742 20.8497ZM49.9869 18.2728C50.3408 17.8887 50.7213 17.5237 51.1273 17.1806L50.7868 16.7788L50.7689 16.7938L50.7273 16.8294L50.6868 16.8641L50.6459 16.8994L50.6054 16.935L50.5647 16.9707L50.5243 17.0066L50.4843 17.0421L50.4448 17.0779L50.4051 17.114L50.365 17.1506L50.325 17.1877L50.2858 17.2243L50.2476 17.2601L50.2081 17.2973L50.1697 17.3341L50.1312 17.371L50.0922 17.4089L50.0533 17.4471L50.0164 17.4837L49.9782 17.521L49.9403 17.5595L49.9029 17.5972L49.8655 17.6351L49.8284 17.6733L49.791 17.712L49.7544 17.7504L49.717 17.7897L49.6807 17.8284L49.6454 17.8663L49.6085 17.9058L49.5982 17.9169L49.9869 18.2728ZM52.2082 16.1974L51.3588 14.8655L50.9149 15.1485L51.7643 16.4804L52.2082 16.1974ZM50.509 13.5334L50.1523 12.9741C49.8823 13.1026 49.598 13.2184 49.3047 13.3214L49.48 13.818L49.4866 13.8162L49.5052 13.8097L49.5226 13.8041L49.54 13.7976L49.5573 13.7911L49.5779 13.7837L49.5952 13.7772L49.6126 13.7707L49.6348 13.7623L49.6519 13.7558L49.6693 13.7493L49.6864 13.7428L49.7037 13.7363L49.7254 13.7279L49.7425 13.7214L49.7596 13.7149L49.7766 13.7084L49.797 13.701L49.8141 13.6945L49.8325 13.687L49.8528 13.6787L49.8665 13.6731L49.8847 13.6657L49.9049 13.6573L49.9236 13.6499L49.9421 13.6425L49.9518 13.6388L50.0653 13.8166L50.509 13.5334ZM47.7797 13.7291C47.2494 13.831 46.7181 13.8944 46.2125 13.9189L46.2401 14.4447L46.2562 14.444L46.2736 14.4431L46.2912 14.4422L46.3089 14.4414L46.3304 14.4404L46.3481 14.4395L46.3654 14.4386L46.3834 14.4376L46.401 14.4367L46.4228 14.4358L46.4445 14.4339L46.4584 14.433L46.4761 14.4321L46.4976 14.4302L46.5158 14.4293L46.5335 14.4283L46.5548 14.4265L46.5727 14.4246L46.5869 14.4238L46.6082 14.4219L46.6304 14.4201L46.6486 14.4182L46.6664 14.4164L46.6841 14.4145L46.7023 14.4127L46.7238 14.4108L46.742 14.4089L46.7599 14.4071L46.7781 14.4052L46.796 14.4034L46.8176 14.4015L46.8358 14.3997L46.8581 14.3978L46.8761 14.3959L46.89 14.395L46.9118 14.3931L46.9338 14.3904L46.9482 14.3885L46.9664 14.3866L46.9882 14.3848L47.0061 14.3829L47.0282 14.3801L47.047 14.3773L47.0651 14.3755L47.0828 14.3727L47.1012 14.3708L47.1235 14.3681L47.1412 14.3662L47.1597 14.3634L47.1778 14.3615L47.1963 14.3588L47.2181 14.356L47.2365 14.3532L47.2547 14.3504L47.2763 14.3476L47.2953 14.3448L47.3134 14.342L47.3313 14.3393L47.3503 14.3365L47.3721 14.3337L47.3901 14.3309L47.4084 14.3281L47.4311 14.3244L47.4493 14.3216L47.467 14.3188L47.4854 14.3161L47.5038 14.3132L47.5222 14.3105L47.5443 14.3068L47.5628 14.304L47.5812 14.3012L47.6039 14.2975L47.622 14.2947L47.6399 14.2919L47.6584 14.2891L47.6768 14.2863L47.6989 14.2826L47.7174 14.2789L47.7358 14.2761L47.7542 14.2724L47.7727 14.2696L47.7945 14.2649L47.813 14.2612L47.8351 14.2575L47.8535 14.2538L47.8719 14.2501L47.8793 14.2482L47.7794 13.7311L47.7797 13.7291ZM44.6352 13.8678C44.1041 13.8067 43.5866 13.6979 43.0953 13.5281L42.9247 14.0266L42.9381 14.0312L42.9576 14.0377L42.9815 14.0461L43.0032 14.0535L43.0227 14.06L43.0435 14.0665L43.0672 14.074L43.0871 14.0805L43.109 14.0879L43.1328 14.0953L43.1527 14.1018L43.1725 14.1083L43.1925 14.1148L43.2154 14.1223L43.2394 14.1288L43.2594 14.1343L43.2825 14.1409L43.3026 14.1464L43.3234 14.1529L43.3468 14.1594L43.3668 14.165L43.39 14.1715L43.4131 14.178L43.4342 14.1836L43.4537 14.1882L43.4768 14.1938L43.4979 14.1994L43.5182 14.205L43.5424 14.2105L43.5661 14.2161L43.5856 14.2207L43.6067 14.2254L43.6304 14.2309L43.6535 14.2365L43.6741 14.2412L43.6944 14.2458L43.7188 14.2514L43.7394 14.256L43.76 14.2607L43.7836 14.2662L43.8073 14.2709L43.8279 14.2755L43.8492 14.2802L43.87 14.2848L43.8937 14.2895L43.9177 14.2941L43.9382 14.2978L43.959 14.3016L43.9827 14.3062L44.004 14.3099L44.0248 14.3136L44.0488 14.3183L44.0727 14.3229L44.0935 14.3266L44.1144 14.3303L44.1389 14.335L44.1599 14.3387L44.1834 14.3424L44.2046 14.3461L44.2257 14.3498L44.2497 14.3536L44.2714 14.3564L44.2919 14.3591L44.316 14.3629L44.3408 14.3666L44.3619 14.3694L44.3829 14.3722L44.404 14.3749L44.4282 14.3786L44.4525 14.3815L44.4736 14.3842L44.4949 14.387L44.5162 14.3898L44.5402 14.3926L44.5617 14.3944L44.5736 14.3963L44.6352 13.8731V13.8678ZM41.6942 12.8108C41.3592 12.5699 41.0478 12.2832 40.7655 11.944C40.6996 11.865 40.6367 11.7847 40.5767 11.7033L40.153 12.0161L40.1535 12.0169L40.1581 12.0225L40.1618 12.0281L40.1711 12.04L40.1706 12.0391L40.1743 12.0447L40.1836 12.0565L40.1864 12.0602L40.1901 12.0658L40.1957 12.0732L40.2003 12.0788L40.205 12.0844L40.2096 12.0899L40.2133 12.0955L40.2217 12.106L40.2263 12.1116L40.2315 12.1177L40.2389 12.1283L40.2436 12.1339L40.2488 12.14L40.2617 12.1566L40.2645 12.1594L40.275 12.1729L40.2778 12.1757L40.2883 12.1892L40.2929 12.1947L40.2976 12.2003L40.3059 12.2103L40.3106 12.2169L40.3152 12.2224L40.3199 12.228L40.3292 12.2393L40.3338 12.2449L40.3382 12.2497L40.3474 12.2611L40.3521 12.2666L40.3567 12.2722L40.3614 12.2778L40.3669 12.2834L40.3825 12.3018L40.3968 12.3189L40.4141 12.3395L40.4299 12.3579L40.4473 12.3779L40.4649 12.3979L40.478 12.4127L40.4926 12.4292L40.5118 12.4509L40.5284 12.4688L40.5445 12.4866L40.561 12.5043L40.5758 12.5203L40.5924 12.538L40.6102 12.5575L40.6272 12.5748L40.6437 12.5922L40.6606 12.6093L40.6774 12.6267L40.6943 12.6436L40.7095 12.6591L40.728 12.6776L40.7451 12.6944L40.7622 12.7112L40.7793 12.7278L40.7967 12.7445L40.8123 12.7592L40.8294 12.7758L40.8502 12.7953L40.866 12.8097L40.8818 12.8245L40.901 12.8421L40.9168 12.8563L40.9342 12.8724L40.9555 12.8913L40.9716 12.9053L40.9876 12.9196L41.0055 12.9351L41.025 12.9519L41.0434 12.9672L41.0595 12.9809L41.0774 12.9959L41.0956 13.0112L41.1156 13.0278L41.1341 13.0428L41.1503 13.056L41.1669 13.0693L41.1872 13.0857L41.2054 13.0999L41.2235 13.1141L41.2446 13.1302L41.2612 13.1428L41.278 13.1557L41.2967 13.1699L41.3172 13.1855L41.3341 13.1979L41.3525 13.2116L41.3739 13.2271L41.3907 13.2392L41.3935 13.2411L41.7001 12.8127L41.6942 12.8108ZM35.0783 10.1187C35.0378 10.2351 34.9943 10.3496 34.9479 10.4623L35.0783 10.6453H36.5503V10.1187H35.0783ZM34.3163 11.6182C34.014 12.0456 33.6516 12.4274 33.2272 12.7548L33.5505 13.1705L33.5613 13.1621L33.5764 13.1502L33.5892 13.1402L33.6045 13.1278L33.6174 13.1176L33.6304 13.1073L33.6453 13.0954L33.6579 13.0852L33.6736 13.0728L33.6882 13.0604L33.7009 13.0502L33.7159 13.0376L33.7307 13.0254L33.743 13.0149L33.7557 13.0044L33.7701 12.9919L33.7851 12.9793L33.7999 12.9664L33.8099 12.958L33.8244 12.9457L33.8389 12.9328L33.8512 12.922L33.8654 12.9094L33.88 12.8965L33.892 12.8854L33.9042 12.8745L33.9207 12.8596L33.9302 12.8503L33.9424 12.8395L33.9608 12.8221L33.9727 12.8108L33.9824 12.8015L33.9984 12.7862L34.01 12.775L34.0219 12.7638L34.0358 12.7504L34.0477 12.7391L34.0614 12.7256L34.075 12.7122L34.0864 12.7009L34.1001 12.6874L34.1114 12.6759L34.123 12.6646L34.1386 12.6488L34.1498 12.6372L34.1611 12.6256L34.1749 12.6116L34.1859 12.6L34.199 12.5864L34.2122 12.5724L34.2233 12.5608L34.2365 12.5469L34.2475 12.535L34.2607 12.5208L34.2715 12.509L34.2825 12.4971L34.2976 12.4808L34.3084 12.4687L34.3191 12.4568L34.3299 12.4447L34.3428 12.4305L34.3552 12.4163L34.3661 12.4041L34.3805 12.3873L34.3911 12.375L34.3994 12.3649L34.4119 12.3507L34.4264 12.3338L34.4347 12.3236L34.4453 12.3115L34.4595 12.2943L34.4697 12.282L34.4819 12.2675L34.4942 12.2522L34.5026 12.2419L34.5147 12.2274L34.5263 12.2127L34.5366 12.2L34.5471 12.1869L34.5592 12.1719L34.5721 12.1551L34.5795 12.1448L34.5901 12.1316L34.6035 12.1142L34.6133 12.1013L34.623 12.0887L34.6343 12.0737L34.6441 12.0608L34.6559 12.0453L34.6654 12.0324L34.6751 12.0194L34.688 12.0015L34.6975 11.9883L34.707 11.9755L34.7186 11.9596L34.7279 11.9468L34.7389 11.9315L34.7473 11.9197L34.3163 11.6182ZM31.8545 13.5263C31.3642 13.7185 30.8504 13.8457 30.328 13.9184L30.3976 14.4402L30.3994 14.44L30.4181 14.4381L30.4313 14.4362L30.4452 14.4344L30.4647 14.4316L30.4784 14.4297L30.4919 14.4279L30.5063 14.4251L30.52 14.4232L30.5334 14.4214L30.5529 14.4186L30.5666 14.4158L30.5806 14.4139L30.5942 14.4121L30.6082 14.4102L30.6267 14.4074L30.6406 14.4056L30.6542 14.4028L30.6683 14.401L30.6866 14.3981L30.7006 14.3954L30.7151 14.3926L30.728 14.3898L30.7419 14.3879L30.7614 14.3842L30.7741 14.3824L30.788 14.3796L30.8028 14.3768L30.8165 14.374L30.8292 14.3712L30.8478 14.3675L30.8626 14.3647L30.8762 14.3619L30.89 14.3591L30.9037 14.3564L30.9221 14.3527L30.9358 14.3498L30.9494 14.3471L30.9679 14.3434L30.9816 14.3406L30.9909 14.3387L31.0094 14.335L31.0278 14.3303L31.037 14.3285L31.0507 14.3257L31.0691 14.3211L31.0839 14.3174L31.0973 14.3146L31.1144 14.3108L31.1281 14.3071L31.1431 14.3034L31.1565 14.2997L31.1689 14.2969L31.1884 14.2923L31.2018 14.2886L31.2155 14.2848L31.229 14.2811L31.2426 14.2774L31.2561 14.2737L31.2745 14.2691L31.288 14.2653L31.3016 14.2616L31.3208 14.256L31.3333 14.2523L31.3469 14.2486L31.3614 14.2449L31.3748 14.2412L31.3873 14.2375L31.4054 14.2328L31.4201 14.2282L31.4336 14.2245L31.4514 14.2189L31.4649 14.2152L31.4783 14.2114L31.4918 14.2077L31.5052 14.204L31.5186 14.2003L31.5368 14.1947L31.5502 14.1901L31.5649 14.1854L31.5826 14.1799L31.5947 14.1761L31.6082 14.1715L31.6229 14.1669L31.636 14.1622L31.6495 14.1576L31.6671 14.152L31.6792 14.1483L31.694 14.1436L31.7132 14.1371L31.7206 14.1343L31.7341 14.1297L31.7562 14.1223L31.7697 14.1176L31.7799 14.1139L31.7976 14.1074L31.8092 14.1028L31.8226 14.0981L31.8416 14.0916L31.8509 14.0888L31.8641 14.0842L31.8859 14.0768L31.8991 14.0721L31.9075 14.0693L31.9251 14.0628L31.9399 14.0573L31.9528 14.0526L31.9686 14.047L31.9818 14.0424L31.9967 14.0368L32.0097 14.0322L32.021 14.0275L32.0402 14.0201L32.0486 14.0164L31.8555 13.5265L31.8545 13.5263ZM28.7518 13.9839C28.2504 13.9591 27.7194 13.892 27.1859 13.7849L27.0826 14.3015L27.0872 14.3023L27.1043 14.306L27.1215 14.3097L27.1423 14.3144L27.1594 14.3172L27.1765 14.3209L27.1936 14.3236L27.2108 14.3274L27.2318 14.3311L27.249 14.3339L27.2661 14.3367L27.2832 14.3394L27.3003 14.3422L27.3213 14.346L27.3384 14.3487L27.3548 14.3515L27.3717 14.3543L27.3895 14.3571L27.4103 14.3608L27.4275 14.3636L27.444 14.3664L27.4648 14.3701L27.4825 14.3729L27.4951 14.3757L27.5159 14.3794L27.5375 14.3831L27.5502 14.385L27.567 14.3877L27.5881 14.3905L27.6049 14.3933L27.622 14.3961L27.6428 14.3998L27.66 14.4026L27.6768 14.4054L27.6939 14.4082L27.71 14.4101L27.7316 14.4128L27.7487 14.4156L27.7648 14.4175L27.7816 14.4203L27.7985 14.4221L27.8162 14.4249L27.8371 14.4277L27.8575 14.4305L27.8703 14.4323L27.8872 14.4351L27.908 14.4379L27.9244 14.4398L27.9409 14.4416L27.9583 14.4435L27.9791 14.4463L27.996 14.4481L28.0123 14.45L28.0289 14.4518L28.0457 14.4537L28.0665 14.4556L28.0834 14.4574L28.1 14.4593L28.1169 14.4611L28.1329 14.463L28.1539 14.4649L28.1708 14.4667L28.1872 14.4686L28.2077 14.4704L28.2243 14.4723L28.2369 14.4732L28.2574 14.476L28.2782 14.4779L28.2907 14.4788L28.3072 14.4806L28.3277 14.4825L28.3441 14.4834L28.3607 14.4853L28.3812 14.4872L28.3978 14.4881L28.4141 14.489L28.4307 14.4899L28.4465 14.4909L28.4673 14.4927L28.4839 14.4937L28.4999 14.4946L28.5205 14.4955L28.5327 14.4964L28.5487 14.4973L28.569 14.4982L28.5855 14.4991L28.6061 14.5001L28.6221 14.5009L28.6382 14.5018L28.6545 14.5027L28.6703 14.5036L28.6911 14.5045L28.7075 14.5054L28.7233 14.5061L28.7251 14.5064L28.7509 13.9803L28.7518 13.9839ZM25.6641 13.3657C25.3426 13.2511 25.0306 13.1215 24.7351 12.9775L24.4273 13.4602L24.8713 13.7433L24.9331 13.6461L24.9466 13.6517L24.9624 13.6582L24.9816 13.6656L24.9974 13.6721L25.0145 13.6795L25.0306 13.686L25.0498 13.6944L25.0659 13.7009L25.0783 13.7056L25.0993 13.7139L25.1188 13.7214L25.1348 13.7278L25.1475 13.7325L25.1635 13.739L25.183 13.7464L25.2025 13.7538L25.2199 13.7604L25.2328 13.765L25.2523 13.7724L25.2686 13.7789L25.2847 13.7854L25.3044 13.7929L25.3205 13.7994L25.3382 13.8059L25.3545 13.8124L25.3708 13.8179L25.3871 13.8245L25.4035 13.8309L25.4234 13.8384L25.4411 13.8449L25.4577 13.8514L25.4761 13.8579L25.4893 13.8625L25.6641 13.3657ZM23.7058 17.115C24.1176 17.45 24.506 17.8065 24.8687 18.1831L25.2479 17.8171L25.2246 17.7929L25.1933 17.7607L25.1633 17.7301L25.1328 17.6988L25.1022 17.6685L25.073 17.639L25.0419 17.608L25.0108 17.5769L24.9792 17.5461L24.9479 17.5156L24.9171 17.4858L24.8871 17.4569L24.8552 17.4263L24.8233 17.3957L24.7923 17.3663L24.7599 17.336L24.7286 17.3067L24.6962 17.2767L24.6646 17.2477L24.6322 17.2177L24.5993 17.1882L24.5682 17.1601L24.5353 17.1306L24.5031 17.1022L24.4703 17.0727L24.4375 17.0442L24.4044 17.015L24.3718 16.9868L24.3402 16.9591L24.3049 16.9288L24.2717 16.9007L24.239 16.873L24.2059 16.8452L24.1727 16.8172L24.1387 16.7888L24.1045 16.7606L24.0711 16.7332L24.0384 16.7066L23.7058 17.115ZM25.8882 19.3886C26.2013 19.813 26.4841 20.2575 26.7345 20.7209L27.1971 20.4695L27.1869 20.4502L27.1664 20.4129L27.1463 20.376L27.1248 20.3367L27.1037 20.2996L27.0837 20.2638L27.0616 20.2249L27.04 20.1872L27.0187 20.1506L26.9967 20.1129L26.9746 20.0758L26.9528 20.0392L26.9315 20.0031L26.9083 19.965L26.8859 19.9286L26.8643 19.8928L26.8412 19.8556L26.8185 19.8193L26.7956 19.783L26.773 19.7474L26.7496 19.7103L26.7253 19.6729L26.7029 19.6387L26.6797 19.6031L26.655 19.5658L26.6308 19.5297L26.6074 19.4949L26.5837 19.4596L26.5597 19.4246L26.5352 19.3888L26.5105 19.353L26.4862 19.3182L26.4612 19.2827L26.4362 19.2472L26.4114 19.2126L26.3869 19.1785L26.3622 19.1441L26.3355 19.1076L26.3114 19.075L25.8882 19.3886ZM27.3815 22.1608C27.5598 22.6503 27.7035 23.1569 27.8104 23.6799L28.3265 23.5738L28.3228 23.5553L28.3135 23.5105L28.3041 23.4673L28.2948 23.4255L28.285 23.3807L28.2747 23.3362L28.2652 23.2949L28.2555 23.2517L28.245 23.2072L28.2345 23.1646L28.2239 23.1214L28.2134 23.0788L28.2026 23.0363L28.1913 22.9923L28.1799 22.9497L28.1689 22.9075L28.1573 22.8649L28.1455 22.8225L28.1333 22.7791L28.1215 22.7372L28.1096 22.6961L28.0975 22.6542L28.0849 22.6107L28.072 22.5689L28.0596 22.5273L28.0459 22.4839L28.0327 22.442L28.0201 22.4022L28.007 22.3609L27.993 22.3177L27.979 22.2763L27.9653 22.2353L27.9516 22.1942L27.9374 22.1529L27.9224 22.11L27.9079 22.0694L27.894 22.0296L27.8792 21.9885L27.8755 21.9788L27.3815 22.1608ZM28.0151 25.245C28.0461 25.7732 28.039 26.3004 27.9964 26.8236L28.5217 26.8655L28.5236 26.8397L28.5254 26.8102L28.5273 26.7839L28.5291 26.7575L28.531 26.7281L28.5328 26.7015L28.5347 26.6722L28.5366 26.6432L28.5384 26.617L28.5403 26.5903L28.5421 26.5637L28.544 26.5345L28.5458 26.5053L28.5468 26.4786L28.5477 26.4521L28.5486 26.4229L28.5496 26.3936L28.5505 26.3671L28.5514 26.3404L28.5524 26.3112L28.5531 26.282L28.5539 26.2551L28.5547 26.2285L28.5555 26.1993L28.556 26.1727L28.5568 26.1461L28.5575 26.1142L28.5578 26.0876L28.5584 26.0611L28.5587 26.0318L28.5588 26.005L28.5591 25.9757V25.9491L28.5594 25.9223V25.893V25.8639L28.5591 25.8369V25.8104L28.5588 25.7811L28.5587 25.7516L28.5581 25.7251L28.5578 25.6982L28.5573 25.6693L28.5565 25.6397L28.5557 25.6131L28.5552 25.5863L28.5544 25.557L28.5536 25.5276L28.5527 25.5009L28.552 25.4741L28.5511 25.4449L28.5501 25.4181L28.5492 25.3888L28.5482 25.3596L28.5473 25.333L28.5455 25.3061L28.5436 25.2766L28.5418 25.25L28.5408 25.2232L28.5401 25.2113L28.0151 25.245ZM27.7612 28.3848C27.6485 28.8986 27.5018 29.4055 27.3238 29.9018L27.821 30.0761L27.8294 30.053L27.8377 30.0277L27.8461 30.0059L27.8561 29.9776L27.8656 29.95L27.8739 29.925L27.8835 29.8974L27.8919 29.8723L27.9012 29.8463L27.9105 29.8194L27.9198 29.792L27.9281 29.7662L27.9365 29.7409L27.9448 29.7157L27.9532 29.6904L27.9629 29.6603L27.9713 29.6343L27.9797 29.6087L27.988 29.5819L27.9964 29.5558L28.0038 29.5303L28.0122 29.5027L28.0196 29.4771L28.027 29.4518L28.0354 29.4239L28.0438 29.396L28.0512 29.3699L28.0586 29.3444L28.067 29.3164L28.0744 29.2909L28.0819 29.2654L28.0902 29.2375L28.0976 29.2093L28.1051 29.1838L28.1125 29.1577L28.1199 29.1295L28.1264 29.1045L28.1339 29.0784L28.1413 29.05L28.1478 29.0244L28.1552 28.9963L28.1626 28.9683L28.1692 28.9418L28.1757 28.9167L28.1822 28.8911L28.1896 28.8623L28.1961 28.8364L28.2026 28.8106L28.21 28.7798L28.2156 28.7541L28.2221 28.7282L28.2286 28.7001L28.2342 28.6743L28.2407 28.6484L28.2472 28.622L28.2537 28.5934L28.2602 28.5658L28.2658 28.5394L28.2723 28.5109L28.2751 28.4973L27.7602 28.3848H27.7612ZM26.7001 31.3522C26.6447 31.4617 26.5879 31.5707 26.5294 31.679C26.3369 32.0349 26.1289 32.3812 25.9067 32.7172L26.3456 33.0082L26.3579 32.9895L26.373 32.9666L26.3885 32.9431L26.4024 32.9216L26.4167 32.8999L26.4327 32.8752L26.4467 32.8533L26.4607 32.8318L26.4746 32.8099L26.4896 32.7864L26.5054 32.7615L26.5178 32.7415L26.5317 32.7196L26.5478 32.6938L26.5613 32.6719L26.5747 32.6509L26.5894 32.6269L26.6042 32.603L26.6184 32.5797L26.6311 32.5587L26.6445 32.5368L26.6587 32.5137L26.6731 32.4895L26.6872 32.4662L26.7005 32.444L26.7143 32.421L26.7279 32.3976L26.743 32.372L26.7553 32.351L26.7685 32.3289L26.7819 32.3052L26.7951 32.2828L26.8093 32.2585L26.8241 32.233L26.8367 32.2103L26.8496 32.1879L26.8622 32.1653L26.8752 32.143L26.8894 32.1171L26.902 32.0945L26.9159 32.0697L26.9283 32.0471L26.9409 32.0244L26.9544 31.9996L26.9668 31.977L26.9797 31.9534L26.9929 31.9294L27.0062 31.9043L27.0189 31.8806L27.0315 31.8572L27.0458 31.8307L27.0592 31.8048L27.0711 31.7822L27.0834 31.7588L27.0968 31.7329L27.1103 31.7068L27.1219 31.6843L27.1342 31.6605L27.1479 31.6336L27.1611 31.6076L27.1706 31.5887L26.7001 31.3522ZM24.9619 33.9827C24.6237 34.3862 24.2636 34.7711 23.8838 35.1363L24.2494 35.5155L24.2609 35.5042L24.2796 35.4863L24.2996 35.4671L24.318 35.4491L24.3378 35.4297L24.3562 35.4115L24.376 35.3923L24.3955 35.3728L24.4126 35.356L24.4321 35.3367L24.4502 35.3185L24.47 35.2991L24.4908 35.278L24.5074 35.2611L24.5255 35.243L24.5463 35.2219L24.563 35.2048L24.5811 35.1866L24.6019 35.1655L24.6211 35.1456L24.639 35.1269L24.6556 35.11L24.6748 35.09L24.694 35.07L24.7117 35.0516L24.7306 35.0316L24.7499 35.0115L24.7675 34.9928L24.7852 34.9742L24.8028 34.9554L24.8215 34.9354L24.8404 34.9149L24.8594 34.8948L24.8766 34.8759L24.8942 34.8569L24.9129 34.8364L24.9303 34.8174L24.9476 34.7985L24.9663 34.7782L24.9848 34.7579L25.0022 34.7387L25.0193 34.7197L25.0379 34.6992L25.0564 34.6784L25.0735 34.6591L25.0919 34.6383L25.1088 34.6192L25.1269 34.5986L25.1438 34.5792L25.1609 34.56L25.1804 34.5376L25.1972 34.5181L25.2129 34.4999L25.231 34.4793L25.2502 34.4567L25.2657 34.4385L25.2826 34.419L25.3016 34.3966L25.3192 34.3755L25.3347 34.3572L25.3513 34.3376L25.3663 34.3198L24.9619 33.9827ZM22.6902 36.1703C22.5203 36.3028 22.3479 36.4318 22.1728 36.5572L22.6446 37.363L23.0991 37.0968L22.8664 36.6994L22.8874 36.6833L22.9082 36.6672L22.9272 36.6528L22.949 36.6362L22.9723 36.6183L22.993 36.6022L23.0136 36.5861L22.6902 36.1703ZM23.443 38.7262L24.2417 40.0896L24.6962 39.8234L23.8975 38.46L23.443 38.7262ZM25.4398 40.4346C25.9685 40.2924 26.4838 40.1868 26.9865 40.1173L26.9133 39.5957L26.9014 39.5975L26.8422 39.6059L26.7825 39.6143L26.7213 39.6235L26.6616 39.633L26.6018 39.6425L26.5407 39.6527L26.4806 39.6633L26.4204 39.6738L26.3588 39.6852L26.2985 39.6965L26.2382 39.7078L26.1765 39.7202L26.1158 39.7323L26.0538 39.7452L25.993 39.7581L25.9319 39.7712L25.8698 39.7852L25.8079 39.7992L25.746 39.8136L25.6849 39.8281L25.6222 39.8432L25.5606 39.8584L25.4993 39.874L25.4364 39.89L25.3742 39.9063L25.3123 39.9227L25.2997 39.9264L25.4398 40.4346ZM28.5615 40.0148C29.0991 40.0204 29.6224 40.0693 30.1332 40.1581L30.2232 39.6383L30.2167 39.6374L30.1623 39.6281L30.1077 39.6188L30.0519 39.6105L29.9987 39.6021L29.9443 39.5937L29.8876 39.5863L29.8329 39.5789L29.7781 39.5714L29.7228 39.5649L29.6677 39.5584L29.6112 39.5519L29.5559 39.5464L29.5016 39.5408L29.4447 39.5352L29.3891 39.5306L29.3336 39.5259L29.2777 39.5213L29.2219 39.5166L29.1648 39.5129L29.1087 39.5092L29.0527 39.5055L28.9966 39.5027L28.9402 39.4999L28.8839 39.4971L28.8259 39.4943L28.7698 39.4925L28.713 39.4906L28.655 39.4897L28.5994 39.4889L28.5668 39.4884L28.5615 40.0148ZM31.6609 40.5539C32.1544 40.7247 32.6366 40.9351 33.1092 41.1814L33.3512 40.7129L33.3246 40.6993L33.2756 40.6742L33.2264 40.6489L33.1753 40.6233L33.1269 40.5994L33.0784 40.5754L33.0273 40.5504L32.977 40.5268L32.9283 40.5035L32.8786 40.4801L32.8282 40.4567L32.7777 40.4335L32.7274 40.4111L32.6774 40.3887L32.6279 40.3669L32.577 40.3448L32.5254 40.3227L32.4757 40.3018L32.4246 40.2803L32.3738 40.2597L32.323 40.239L32.2723 40.2189L32.2211 40.1987L32.1697 40.1789L32.1193 40.1594L32.0668 40.1397L32.0157 40.121L31.9651 40.1025L31.9122 40.0836L31.8603 40.0654L31.8327 40.0557L31.6609 40.5539ZM34.4603 41.9985C34.8839 42.2907 35.3008 42.6122 35.7124 42.9606L36.0523 42.5582L36.0194 42.5304L35.9739 42.4922L35.9269 42.4529L35.882 42.4158L35.8375 42.3792L35.7906 42.3405L35.7448 42.3036L35.6994 42.267L35.6534 42.2301L35.6076 42.1935L35.561 42.1569L35.5154 42.1212L35.4701 42.0859L35.4233 42.0495L35.3769 42.014L35.3308 41.9787L35.2842 41.9437L35.2379 41.9086L35.1905 41.8736L35.1447 41.8399L35.0988 41.8062L35.051 41.771L35.004 41.7375L34.959 41.7051L34.9113 41.6711L34.863 41.6369L34.8166 41.6048L34.7705 41.5726L34.7583 41.5643L34.4603 41.9985ZM23.1721 16.4075L22.7281 16.1245L23.5778 14.7923L24.0218 15.0753L23.1721 16.4075ZM50.9596 38.5147L51.4141 38.7809L50.6157 40.1441L50.1612 39.8779L50.9596 38.5147ZM39.7101 10.6453V10.3672L39.4457 10.473L39.7101 10.6453ZM39.313 10.5263L39.3174 10.5366L39.3201 10.5422L39.313 10.5263ZM39.2883 10.4681L39.2874 10.465L39.2882 10.4668L39.2883 10.4681ZM39.2883 10.4681L39.2893 10.4707L39.2903 10.4726L39.2883 10.4681ZM39.2914 10.4754L39.2916 10.4763L39.2922 10.4772L39.2914 10.4754ZM39.2952 10.4859L39.2959 10.4877L39.2977 10.4905L39.2952 10.4859ZM39.2844 10.4609L39.2862 10.4637L39.2844 10.459V10.4609ZM39.2836 10.4581L39.2816 10.4551L39.2827 10.4553L39.2836 10.4581ZM39.2416 10.3609L39.2407 10.3591L39.2389 10.3544L39.2397 10.3572L39.2416 10.3609ZM39.2407 10.3591L39.2351 10.3453L39.2342 10.3435L39.2389 10.3544L39.2407 10.3591ZM39.2289 10.3317L39.2243 10.3193L39.2215 10.3138L39.2289 10.3317ZM41.2208 8.87092C41.1105 8.39978 40.7105 8.07018 40.2379 8.07018H34.4301C33.9532 8.07018 33.5504 8.40582 33.4468 8.8727C33.1656 9.99 32.5753 10.8868 31.5649 11.4206C30.7824 11.834 29.8691 11.9654 28.9978 11.9441C27.7339 11.9131 26.0487 11.5083 24.9688 10.8045C24.5043 10.5016 23.8876 10.6414 23.5863 11.1138L20.6175 15.769C20.4592 16.0171 20.4107 16.3022 20.4774 16.5909C20.5438 16.8799 20.7117 17.1123 20.9624 17.2597C23.8123 18.9343 25.9046 21.587 26.148 25.042C26.2846 26.9832 25.8022 28.9041 24.8874 30.5975C23.8574 32.5045 22.3162 34.072 20.5279 35.2288C20.0592 35.5319 19.9131 36.1751 20.1986 36.6625L23.3326 42.0134C23.5843 42.4432 24.0932 42.6283 24.5502 42.4518C29.706 40.464 33.158 42.3413 36.6944 46.3387C36.8902 46.5601 37.1494 46.6786 37.4401 46.6786C37.7308 46.6786 37.9902 46.5601 38.1858 46.339C41.7161 42.3491 45.149 40.4662 50.2987 42.4518C50.7559 42.6283 51.2646 42.4434 51.5166 42.0134L54.6506 36.6625C54.9387 36.1706 54.8076 35.4718 54.2875 35.2093C51.2327 33.6681 49.1438 30.6628 48.7573 27.1792C48.291 22.9776 50.3717 19.3254 53.8867 17.2597C54.1374 17.1123 54.3054 16.8799 54.3717 16.5909C54.4382 16.3022 54.3902 16.0171 54.2319 15.769L51.2628 11.1138C50.9615 10.6414 50.3449 10.5016 49.8803 10.8045C48.7571 11.5367 46.9298 11.9011 45.6186 11.8811C43.5767 11.8498 41.8304 11.018 41.2208 8.87092ZM37.3061 45.7652C33.5377 41.5055 29.7462 39.539 24.2599 41.6545C24.1744 41.6872 24.088 41.6545 24.0411 41.5736L20.9071 36.2227C20.8536 36.1314 20.8797 36.0069 20.9682 35.9497C22.8746 34.7166 24.5124 33.0439 25.6104 31.0114C26.6038 29.173 27.1214 27.0874 26.9731 24.9804C26.7096 21.2384 24.4653 18.3374 21.3727 16.5199C21.321 16.4896 21.296 16.4539 21.2823 16.3946C21.2684 16.3338 21.2758 16.2886 21.3091 16.2365L24.2778 11.5811C24.3324 11.4959 24.4418 11.469 24.5262 11.5238C25.735 12.3119 27.5617 12.7606 28.978 12.7954C31.4991 12.8572 33.5783 11.745 34.2479 9.08659L34.2507 9.07321C34.2708 8.98311 34.3391 8.9218 34.43 8.9218H40.2378C40.3289 8.9218 40.3971 8.98285 40.4171 9.07321L40.4199 9.0862L40.4236 9.09921C40.7738 10.3416 41.4832 11.339 42.5847 11.9765C43.4997 12.506 44.5648 12.7167 45.606 12.7327C47.0824 12.7554 49.0597 12.3472 50.3228 11.5239C50.407 11.4691 50.5169 11.4962 50.5711 11.5812L53.54 16.2365C53.5734 16.2886 53.5805 16.3341 53.5666 16.3947C53.553 16.454 53.5279 16.4897 53.4762 16.52C49.6732 18.755 47.4313 22.7351 47.935 27.2758C48.3534 31.0478 50.6153 34.305 53.9231 35.974C53.9958 36.0108 53.9768 36.1631 53.9418 36.2228L50.8078 41.5737C50.7609 41.6537 50.6743 41.6874 50.5887 41.6546C45.1067 39.5407 41.3376 41.5118 37.5739 45.7655C37.5349 45.8095 37.4976 45.827 37.4399 45.827C37.382 45.827 37.3451 45.8094 37.3061 45.7652ZM7.27843 66.7406V78.8104H8.19214V66.7406H7.27843ZM19.1238 66.7406V77.1207L11.9855 66.7406H11.1924V78.8104H12.1061V68.4304L19.2273 78.8104H20.0378V66.7406H19.1238ZM28.6243 79C30.8831 79 32.8487 77.8277 33.8315 76.0517L33.021 75.5861C32.2278 77.1033 30.5381 78.1208 28.6243 78.1208C25.4517 78.1208 23.2619 75.7411 23.2619 72.7757C23.2619 69.8099 25.4517 67.4305 28.6243 67.4305C30.521 67.4305 32.1934 68.4303 32.9865 69.9134L33.797 69.4478C32.7969 67.6892 30.8486 66.5511 28.6243 66.5511C24.9516 66.5511 22.3481 69.327 22.3481 72.7757C22.3481 76.2241 24.9516 79 28.6243 79ZM41.5214 79C45.0043 79 47.7461 76.2241 47.7461 72.7757C47.7461 69.327 45.0043 66.5511 41.5214 66.5511C38.0385 66.5511 35.2971 69.327 35.2971 72.7757C35.2971 76.2241 38.0385 79 41.5214 79ZM41.5214 78.1208C38.5385 78.1208 36.2108 75.7411 36.2108 72.7757C36.2108 69.8099 38.5385 67.4305 41.5214 67.4305C44.5043 67.4305 46.832 69.8099 46.832 72.7757C46.832 75.7411 44.5043 78.1208 41.5214 78.1208ZM57.6774 78.8104H58.7293L55.7291 73.7412C57.2637 73.3273 58.3844 71.948 58.3844 70.31C58.3844 68.3442 56.7808 66.7406 54.8153 66.7406H50.0564V78.8104H50.9701V73.8619H54.7809L57.6774 78.8104ZM50.9701 67.6028H54.8153C56.2807 67.6028 57.4707 68.8098 57.4707 70.31C57.4707 71.7927 56.2807 72.9998 54.8153 72.9998H50.9701V67.6028ZM61.5398 77.9483V73.1549H67.0574V72.2928H61.5398V67.6028H67.4884V66.7406H60.626V78.8104H67.5748V77.9483H61.5398Z" fill="black"/>
</svg>
